<svg xmlns="http://www.w3.org/2000/svg" width="2752" height="2064" preserveAspectRatio="none" viewBox="0 0 1600 1000"><rect x="0" y="0" width="1600" height="1000" rx="0" fill="#f7f9f4" stroke="none"/><rect x="0" y="0" width="255" height="1000" rx="0" fill="#eef2e8" stroke="none"/><rect x="30" y="34" width="33" height="33" rx="9" fill="#366c49" stroke="none"/><text x="40" y="57" font-family="Arial,Helvetica,sans-serif" font-size="23" font-weight="700" fill="white">m</text><text x="76" y="60" font-family="Arial,Helvetica,sans-serif" font-size="29" font-weight="700" fill="#294a35">morrow</text><text x="31" y="132" font-family="Arial,Helvetica,sans-serif" font-size="11" font-weight="600" fill="#929e87">WORKSPACE</text><rect x="37" y="169" width="14" height="14" rx="3" fill="#b4c1a6" stroke="none"/><text x="66" y="182" font-family="Arial,Helvetica,sans-serif" font-size="16" font-weight="400" fill="#8a967c">Overview</text><rect x="20" y="215" width="215" height="45" rx="7" fill="#dfe9d4" stroke="none"/><rect x="37" y="229" width="14" height="14" rx="3" fill="#77945e" stroke="none"/><text x="66" y="242" font-family="Arial,Helvetica,sans-serif" font-size="16" font-weight="600" fill="#3a5930">Analytics</text><rect x="37" y="289" width="14" height="14" rx="3" fill="#b4c1a6" stroke="none"/><text x="66" y="302" font-family="Arial,Helvetica,sans-serif" font-size="16" font-weight="400" fill="#8a967c">Transactions</text><rect x="37" y="349" width="14" height="14" rx="3" fill="#b4c1a6" stroke="none"/><text x="66" y="362" font-family="Arial,Helvetica,sans-serif" font-size="16" font-weight="400" fill="#8a967c">Customers</text><rect x="37" y="409" width="14" height="14" rx="3" fill="#b4c1a6" stroke="none"/><text x="66" y="422" font-family="Arial,Helvetica,sans-serif" font-size="16" font-weight="400" fill="#8a967c">Products</text><rect x="37" y="469" width="14" height="14" rx="3" fill="#b4c1a6" stroke="none"/><text x="66" y="482" font-family="Arial,Helvetica,sans-serif" font-size="16" font-weight="400" fill="#8a967c">Reports</text><text x="33" y="684" font-family="Arial,Helvetica,sans-serif" font-size="11" font-weight="600" fill="#95a18a">YOUR TEAM</text><text x="38" y="733" font-family="Arial,Helvetica,sans-serif" font-size="15" font-weight="400" fill="#7e8d71">↗  Invite a teammate</text><rect x="25" y="856" width="204" height="105" rx="9" fill="#e2ead8" stroke="none"/><text x="42" y="890" font-family="Arial,Helvetica,sans-serif" font-size="14" font-weight="600" fill="#6e845d">A little more possibility.</text><text x="42" y="916" font-family="Arial,Helvetica,sans-serif" font-size="12" font-weight="400" fill="#91a17f">Explore your workspace</text><text x="43" y="943" font-family="Arial,Helvetica,sans-serif" font-size="12" font-weight="600" fill="#587943">View all tools  →</text><text x="301" y="56" font-family="Arial,Helvetica,sans-serif" font-size="13" font-weight="400" fill="#8b987f">Workspace   /   Analytics</text><rect x="1320" y="27" width="170" height="40" rx="6" fill="white" stroke="#e2e8da"/><text x="1338" y="52" font-family="Arial,Helvetica,sans-serif" font-size="13" font-weight="400" fill="#9aa78e">Search anything…</text><rect x="1513" y="30" width="34" height="34" rx="17" fill="#d6e7c6" stroke="none"/><text x="1523" y="53" font-family="Arial,Helvetica,sans-serif" font-size="13" font-weight="600" fill="#637a50">JD</text><path d="M255 90 H1600" stroke="#e5ebdd"/><text x="302" y="161" font-family="Arial,Helvetica,sans-serif" font-size="34" font-weight="600" fill="#304333">A clearer picture.</text><text x="303" y="197" font-family="Arial,Helvetica,sans-serif" font-size="15" font-weight="400" fill="#96a18c">Every number tells a story. Here’s yours.</text><rect x="1345" y="129" width="204" height="46" rx="7" fill="#416a37" stroke="none"/><text x="1369" y="159" font-family="Arial,Helvetica,sans-serif" font-size="15" font-weight="500" fill="white">+  Create report</text><rect x="302" y="242" width="397" height="164" rx="11" fill="#e5efdc" stroke="#e3e9db"/><text x="326" y="277" font-family="Arial,Helvetica,sans-serif" font-size="14" font-weight="400" fill="#8a9b7b">Total revenue</text><text x="326" y="326" font-family="Arial,Helvetica,sans-serif" font-size="34" font-weight="600" fill="#3e5337">$128,430</text><rect x="326" y="347" width="86" height="27" rx="5" fill="#dbeccf" stroke="none"/><text x="336" y="366" font-family="Arial,Helvetica,sans-serif" font-size="12" font-weight="400" fill="#6a8d51">↗ 18.4%</text><text x="421" y="366" font-family="Arial,Helvetica,sans-serif" font-size="12" font-weight="400" fill="#a0ac93">vs. last month</text><rect x="722" y="242" width="397" height="164" rx="11" fill="#ffffff" stroke="#e3e9db"/><text x="746" y="277" font-family="Arial,Helvetica,sans-serif" font-size="14" font-weight="400" fill="#8a9b7b">Conversion rate</text><text x="746" y="326" font-family="Arial,Helvetica,sans-serif" font-size="34" font-weight="600" fill="#3e5337">4.86%</text><rect x="746" y="347" width="86" height="27" rx="5" fill="#dbeccf" stroke="none"/><text x="756" y="366" font-family="Arial,Helvetica,sans-serif" font-size="12" font-weight="400" fill="#6a8d51">↗ 3.2%</text><text x="841" y="366" font-family="Arial,Helvetica,sans-serif" font-size="12" font-weight="400" fill="#a0ac93">vs. last month</text><rect x="1142" y="242" width="397" height="164" rx="11" fill="#ffffff" stroke="#e3e9db"/><text x="1166" y="277" font-family="Arial,Helvetica,sans-serif" font-size="14" font-weight="400" fill="#8a9b7b">Active customers</text><text x="1166" y="326" font-family="Arial,Helvetica,sans-serif" font-size="34" font-weight="600" fill="#3e5337">2,840</text><rect x="1166" y="347" width="86" height="27" rx="5" fill="#dbeccf" stroke="none"/><text x="1176" y="366" font-family="Arial,Helvetica,sans-serif" font-size="12" font-weight="400" fill="#6a8d51">↗ 12.8%</text><text x="1261" y="366" font-family="Arial,Helvetica,sans-serif" font-size="12" font-weight="400" fill="#a0ac93">vs. last month</text><rect x="302" y="432" width="810" height="324" rx="10" fill="white" stroke="#e3e9db"/><text x="327" y="470" font-family="Arial,Helvetica,sans-serif" font-size="18" font-weight="600" fill="#546d44">Revenue overview</text><text x="950" y="469" font-family="Arial,Helvetica,sans-serif" font-size="12" font-weight="400" fill="#9caa8d">This month  ⌄</text><path d="M350 514 H1086" stroke="#eff2e9"/><text x="325" y="518" font-family="Arial,Helvetica,sans-serif" font-size="9" font-weight="400" fill="#bdc6b1">30k</text><path d="M350 570 H1086" stroke="#eff2e9"/><text x="325" y="574" font-family="Arial,Helvetica,sans-serif" font-size="9" font-weight="400" fill="#bdc6b1">20k</text><path d="M350 626 H1086" stroke="#eff2e9"/><text x="325" y="630" font-family="Arial,Helvetica,sans-serif" font-size="9" font-weight="400" fill="#bdc6b1">10k</text><path d="M350 682 H1086" stroke="#eff2e9"/><text x="325" y="686" font-family="Arial,Helvetica,sans-serif" font-size="9" font-weight="400" fill="#bdc6b1">0k</text><defs><linearGradient id="area" x1="0" y1="0" x2="0" y2="1"><stop stop-color="#cedfc0" stop-opacity=".9"/><stop offset="1" stop-color="#e7efdf" stop-opacity=".1"/></linearGradient></defs><path d="M353 652 C388 648 400 620 442 630 S493 580 535 592 S572 633 615 590 S665 578 707 545 S750 580 798 542 S852 557 889 516 S936 545 981 517 S1038 527 1087 487 L1087 698 L353 698 Z" fill="url(#area)"/><path d="M353 652 C388 648 400 620 442 630 S493 580 535 592 S572 633 615 590 S665 578 707 545 S750 580 798 542 S852 557 889 516 S936 545 981 517 S1038 527 1087 487" fill="none" stroke="#86a769" stroke-width="3"/><text x="349" y="731" font-family="Arial,Helvetica,sans-serif" font-size="11" font-weight="400" fill="#a8b39a">Sep 1</text><text x="468" y="731" font-family="Arial,Helvetica,sans-serif" font-size="11" font-weight="400" fill="#a8b39a">Sep 5</text><text x="587" y="731" font-family="Arial,Helvetica,sans-serif" font-size="11" font-weight="400" fill="#a8b39a">Sep 10</text><text x="706" y="731" font-family="Arial,Helvetica,sans-serif" font-size="11" font-weight="400" fill="#a8b39a">Sep 15</text><text x="825" y="731" font-family="Arial,Helvetica,sans-serif" font-size="11" font-weight="400" fill="#a8b39a">Sep 20</text><text x="944" y="731" font-family="Arial,Helvetica,sans-serif" font-size="11" font-weight="400" fill="#a8b39a">Sep 25</text><text x="1063" y="731" font-family="Arial,Helvetica,sans-serif" font-size="11" font-weight="400" fill="#a8b39a">Sep 30</text><rect x="1136" y="432" width="404" height="324" rx="10" fill="white" stroke="#e3e9db"/><text x="1161" y="470" font-family="Arial,Helvetica,sans-serif" font-size="18" font-weight="600" fill="#546d44">Top channels</text><text x="1164" y="518" font-family="Arial,Helvetica,sans-serif" font-size="13" font-weight="400" fill="#91a07f">Direct</text><text x="1456" y="518" font-family="Arial,Helvetica,sans-serif" font-size="12" font-weight="400" fill="#81966d">42%</text><rect x="1164" y="531" width="342" height="6" rx="3" fill="#edf2e7" stroke="none"/><rect x="1164" y="531" width="267" height="6" rx="3" fill="#9fba86" stroke="none"/><text x="1164" y="576" font-family="Arial,Helvetica,sans-serif" font-size="13" font-weight="400" fill="#91a07f">Organic search</text><text x="1456" y="576" font-family="Arial,Helvetica,sans-serif" font-size="12" font-weight="400" fill="#81966d">28%</text><rect x="1164" y="589" width="342" height="6" rx="3" fill="#edf2e7" stroke="none"/><rect x="1164" y="589" width="196" height="6" rx="3" fill="#b6ca9f" stroke="none"/><text x="1164" y="634" font-family="Arial,Helvetica,sans-serif" font-size="13" font-weight="400" fill="#91a07f">Social media</text><text x="1456" y="634" font-family="Arial,Helvetica,sans-serif" font-size="12" font-weight="400" fill="#81966d">18%</text><rect x="1164" y="647" width="342" height="6" rx="3" fill="#edf2e7" stroke="none"/><rect x="1164" y="647" width="138" height="6" rx="3" fill="#ccdabd" stroke="none"/><text x="1164" y="692" font-family="Arial,Helvetica,sans-serif" font-size="13" font-weight="400" fill="#91a07f">Referral</text><text x="1456" y="692" font-family="Arial,Helvetica,sans-serif" font-size="12" font-weight="400" fill="#81966d">12%</text><rect x="1164" y="705" width="342" height="6" rx="3" fill="#edf2e7" stroke="none"/><rect x="1164" y="705" width="80" height="6" rx="3" fill="#dce6d1" stroke="none"/><rect x="302" y="784" width="1238" height="190" rx="10" fill="white" stroke="#e3e9db"/><text x="327" y="826" font-family="Arial,Helvetica,sans-serif" font-size="18" font-weight="600" fill="#546d44">Recent activity</text><text x="1432" y="826" font-family="Arial,Helvetica,sans-serif" font-size="12" font-weight="400" fill="#94a382">View all →</text><text x="327" y="870" font-family="Arial,Helvetica,sans-serif" font-size="10" font-weight="400" fill="#a5b395">CUSTOMER</text><text x="667" y="870" font-family="Arial,Helvetica,sans-serif" font-size="10" font-weight="400" fill="#a5b395">ORDER</text><text x="922" y="870" font-family="Arial,Helvetica,sans-serif" font-size="10" font-weight="400" fill="#a5b395">DATE</text><text x="1157" y="870" font-family="Arial,Helvetica,sans-serif" font-size="10" font-weight="400" fill="#a5b395">AMOUNT</text><text x="1377" y="870" font-family="Arial,Helvetica,sans-serif" font-size="10" font-weight="400" fill="#a5b395">STATUS</text><text x="327" y="916" font-family="Arial,Helvetica,sans-serif" font-size="15" font-weight="400" fill="#81946f">Alex Johnson</text><text x="667" y="916" font-family="Arial,Helvetica,sans-serif" font-size="14" font-weight="400" fill="#9aa78d">#MR–1284</text><text x="922" y="916" font-family="Arial,Helvetica,sans-serif" font-size="12" font-weight="400" fill="#9aa78d">September 16, 2026</text><text x="1157" y="916" font-family="Arial,Helvetica,sans-serif" font-size="15" font-weight="400" fill="#81946f">$129.00</text><rect x="1378" y="893" width="113" height="31" rx="15" fill="#edf5e6" stroke="none"/><text x="1401" y="914" font-family="Arial,Helvetica,sans-serif" font-size="11" font-weight="400" fill="#8aa571">Completed</text></svg>